<?xml version="1.0" standalone="no"?>
<!DOCTYPE svg PUBLIC "-//W3C//DTD SVG 20010904//EN"
 "http://www.w3.org/TR/2001/REC-SVG-20010904/DTD/svg10.dtd">
<svg version="1.0" xmlns="http://www.w3.org/2000/svg"
 width="6000.000000pt" height="5000.000000pt" viewBox="0 0 5000.000000 5000.000000"
 preserveAspectRatio="xMidYMid meet">

<g transform="translate(0.000000,5000.000000) scale(0.100000,-0.100000)"
fill="#000000" stroke="none">
<path d="M26020 28545 c-30 -7 -77 -23 -103 -34 -60 -26 -183 -110 -223 -152
-28 -30 -895 -651 -3559 -2549 -682 -486 -1318 -939 -1413 -1007 -95 -67 -177
-123 -182 -123 -5 0 -222 165 -482 367 -260 202 -770 596 -1133 877 -363 281
-786 608 -940 727 -154 119 -304 240 -332 268 -264 257 -650 357 -1004 260
-95 -26 -257 -105 -337 -166 -34 -26 -316 -312 -625 -637 -3843 -4035 -6652
-6810 -8442 -8341 -238 -203 -253 -216 -215 -193 53 32 3069 1906 3720 2311
377 234 692 429 701 432 13 5 3 -39 -43 -202 -245 -867 -378 -1346 -375 -1349
3 -4 703 601 1926 1665 414 361 765 666 780 677 14 12 121 50 241 87 331 101
362 109 370 100 5 -4 170 -237 367 -518 197 -280 396 -563 442 -627 l83 -118
47 58 c348 423 933 1143 933 1149 0 4 -18 11 -39 14 -373 59 -1006 165 -1014
170 -6 4 116 178 293 420 168 228 459 626 648 884 189 259 368 504 399 546 32
42 64 87 73 100 9 13 19 21 22 18 8 -7 922 -1889 943 -1943 14 -33 18 -36 23
-20 4 10 10 161 14 334 8 384 52 2124 65 2564 6 175 12 321 15 324 3 3 266
-106 583 -241 318 -136 832 -355 1143 -486 311 -132 564 -244 563 -249 -1 -4
-120 -208 -266 -452 -438 -739 -710 -1203 -714 -1221 -3 -12 47 -90 143 -221
81 -112 147 -210 147 -218 -1 -8 -117 -368 -257 -799 -141 -432 -254 -786
-252 -788 5 -5 1536 1745 1536 1756 0 5 -94 125 -210 267 -163 202 -207 261
-197 271 37 36 2241 1533 2247 1526 4 -4 17 -55 29 -113 13 -58 97 -432 187
-833 90 -400 164 -735 164 -744 0 -10 -126 -144 -280 -298 l-280 -280 318
-720 c175 -396 415 -940 533 -1209 189 -433 215 -486 222 -460 12 46 397 2428
397 2459 0 8 -113 196 -251 417 -162 260 -248 407 -242 415 4 7 116 108 248
225 243 215 1166 1030 1196 1055 15 12 35 -17 190 -274 95 -158 407 -675 693
-1148 285 -473 566 -938 623 -1032 57 -95 108 -173 113 -173 4 0 86 137 182
305 95 167 176 303 180 302 7 -2 969 -1209 1861 -2334 171 -216 312 -391 314
-390 5 6 -1361 3887 -1368 3885 -4 -2 -118 -133 -254 -291 -136 -159 -248
-287 -250 -285 -5 5 -355 558 -482 762 l-124 198 462 1377 c254 757 465 1379
468 1383 3 3 281 -462 616 -1034 336 -573 615 -1047 620 -1055 9 -11 70 98
270 481 260 495 281 533 289 525 2 -2 405 -686 896 -1519 l891 -1515 -430
-1074 c-237 -591 -429 -1076 -427 -1078 2 -2 140 110 307 250 303 252 1083
899 1170 970 l46 37 1054 -666 c580 -367 1140 -720 1244 -786 105 -66 183
-112 174 -102 -48 56 -1479 1844 -1489 1860 -9 15 6 167 69 709 43 380 112
981 153 1337 40 357 76 648 80 648 4 0 358 -307 785 -682 1548 -1357 4048
-3544 4062 -3552 8 -5 -171 359 -398 809 -226 450 -410 819 -408 821 2 2 129
-82 283 -188 2662 -1823 4693 -3044 5889 -3543 172 -71 305 -120 290 -107 -5
5 -120 89 -255 187 -496 361 -1062 792 -1530 1164 -300 239 -750 604 -845 686
-39 33 -154 130 -255 215 -337 283 -474 402 -935 815 -217 194 -218 194 -503
460 -344 319 -796 760 -1097 1069 -292 300 -362 359 -472 398 -36 13 -83 21
-126 21 -132 0 -266 -92 -375 -259 -28 -42 -53 -82 -55 -87 -3 -11 -177 116
-692 503 -435 327 -830 637 -1295 1016 -629 512 -1360 1192 -1774 1649 -60 66
-125 131 -145 145 -94 64 -259 95 -383 71 -82 -16 -191 -69 -253 -124 -27 -24
-347 -255 -710 -514 -363 -259 -672 -485 -687 -502 -85 -95 -221 -95 -412 0
-158 80 -206 122 -566 490 -423 435 -1165 1192 -1560 1594 -162 165 -578 589
-923 941 -345 353 -653 659 -685 681 -164 115 -316 154 -462 118z"/>
</g>
</svg>
