<?xml version="1.0" encoding="UTF-8"?><svg id="uuid-d759d33c-bc50-4813-a1f5-379447630375" xmlns="http://www.w3.org/2000/svg" viewBox="0 0 281.23 283.46"><path d="m257.31,182.73l-.44.26c-25.28,14.52-55,27.74-87.63,38.34-46.21,15-90.82,22.36-128,22.47,56.37,54.28,146.08,52.59,200.36-3.78,18.77-19.49,31.56-43.94,36.87-70.47-6.64,4.48-13.69,8.87-21.16,13.18Z" style="fill:#e42314;"/><path d="m278.83,116h-21.52v57.27c8-4.18,15.62-8.54,22.71-13,1.94-14.73,1.54-29.67-1.19-44.27Z" style="fill:#e42314;"/><path d="m275,100.41c-.25-.82-.46-1.65-.73-2.47-6.54-20.25-17.57-38.75-32.27-54.13-27.71,1.88-59.08,7.95-91.39,18.45-31.84,10.35-60.44,23.63-83.78,38.15h47.74v15.35h-43.47v17.94h38.37v14.88h-38.37v19.13h45v15.35H52.1v-72.83C16.73,135.56-2.29,163.34,4.85,185.29c12.28,37.81,97.45,44,190.23,13.87,14.66-4.75,29.05-10.3,43.11-16.62v-66.54h-26.45v-15.59h63.26Zm-128.45,55c2.22,3.96,5.52,7.21,9.5,9.38,4.26,2.3,9.03,3.46,13.87,3.37,5.18.08,10.29-1.14,14.88-3.54v-24.19h17.47v33.57c-4.69,3.5-9.97,6.14-15.58,7.8-5.77,1.79-11.78,2.7-17.83,2.71-8.05.12-16-1.78-23.13-5.51-6.67-3.5-12.25-8.77-16.12-15.23-7.77-13.64-7.77-30.36,0-44,3.89-6.49,9.52-11.76,16.24-15.23,7.22-3.75,15.25-5.65,23.38-5.54,6.75-.09,13.45,1.15,19.71,3.66,5.73,2.31,10.83,5.96,14.88,10.63l-12.28,11.33c-5.46-6.03-13.24-9.42-21.37-9.33-4.87-.08-9.68,1.06-14,3.31-4.02,2.12-7.34,5.36-9.56,9.33-4.57,8.6-4.57,18.91,0,27.51l-.06-.03Z" style="fill:#e42314;"/><path d="m116.78,59.86c42.45-13.79,83.54-21.11,118.78-22.3C178.02-15.49,88.38-11.85,35.33,45.69,17,65.58,4.74,90.3,0,116.93c30.16-21.78,70.57-42.05,116.78-57.07Z" style="fill:#e42314;"/></svg>